<svg width="216" height="40" viewBox="0 0 216 40" fill="none" xmlns="http://www.w3.org/2000/svg">
    <path d="M19.9997 4.80005L12.5747 17.6592C15.3922 16.7909 18.423 16.6617 21.3613 17.355L23.8705 17.9475L21.5097 27.9575L18.9963 27.3659C15.908 26.6367 12.9405 28.2592 11.6863 30.8475L9.36384 29.7234C11.1363 26.0625 15.3138 23.8459 19.5905 24.855L20.7672 19.8659C16.5522 18.8725 12.1088 19.8617 8.71301 22.55C5.31634 25.2375 3.33301 29.335 3.33301 33.6667H36.6663L19.9997 4.80005Z" fill="#F7F7F6"/>
    <path fill-rule="evenodd" clip-rule="evenodd" d="M50.2501 26.3604C49.3541 24.4268 48.854 22.2731 48.854 20.0035C48.854 19.4161 48.8875 18.8364 48.9527 18.2664C49.0189 17.6904 49.1169 17.1251 49.2449 16.5722C49.9641 13.4708 51.6368 10.7331 53.937 8.68522C55.869 6.96746 58.2357 5.74182 60.8302 5.18627C61.8541 4.96759 62.9161 4.85254 64.0049 4.85254C64.3865 4.85294 64.7709 4.86759 65.1575 4.89708C66.9912 5.03708 68.724 5.49869 70.3048 6.22242C71.5801 6.80686 72.7604 7.56321 73.8161 8.46168C76.4679 10.7206 78.3173 13.8674 78.9323 17.3985C79.0793 18.2449 79.1558 19.1153 79.1558 20.0035C79.1555 20.3857 79.1408 20.7706 79.1112 21.1579C78.9995 22.6214 78.6828 24.0207 78.1916 25.3297C77.506 27.1531 76.4786 28.8097 75.1878 30.2214C73.5089 31.9356 71.3754 32.6984 69.5935 32.6667C68.2978 32.6436 67.03 32.128 66.154 31.3737C64.9025 30.296 64.397 29.0641 64.2237 27.6895C64.1807 27.3478 64.2059 26.4167 64.3838 25.772C64.5163 25.2914 64.8525 24.3633 65.3441 23.9573C64.769 23.7097 64.0289 23.1703 63.7955 22.9114C63.7382 22.8478 63.7456 22.7481 63.7969 22.6795C63.8484 22.611 63.9384 22.5839 64.0191 22.6129C64.5135 22.7826 65.1156 22.95 65.7506 23.0562C66.5856 23.1958 67.6241 23.3716 68.6761 23.4233C71.2412 23.5493 73.9205 22.398 74.7522 20.1072C75.5837 17.8164 75.261 15.5506 72.2778 14.1915C69.2945 12.8323 67.9165 11.2163 65.5061 10.2417C63.9317 9.605 62.1794 9.98298 60.3803 10.9772C55.5345 13.6552 51.1931 22.1164 53.1944 29.9554C53.2229 30.0627 53.1747 30.1756 53.0774 30.2291C52.9862 30.2791 52.8741 30.2648 52.7985 30.1956C52.2161 29.5557 51.6876 28.8658 51.2204 28.1329C50.859 27.5659 50.5346 26.9739 50.2501 26.3604Z" fill="#F7F7F6"/>
    <path fill-rule="evenodd" clip-rule="evenodd" d="M63.463 11.2935C64.2804 11.2295 64.9935 11.927 65.1164 12.8548C65.2805 14.0906 64.8268 15.3673 63.3354 15.3967C62.0612 15.4221 61.6752 14.1372 61.7596 13.3588C61.8435 12.5805 62.4851 11.3703 63.463 11.2935Z" fill="#F7F7F6"/>
    <path d="M93.0578 13.8218V10.8637H106.995V13.8218H101.799V27.8334H98.2531V13.8218H93.0578ZM118.496 15.7441C118.429 15.0757 118.145 14.5565 117.642 14.1864C117.14 13.8162 116.457 13.6312 115.596 13.6312C115.01 13.6312 114.516 13.7141 114.112 13.8798C113.709 14.04 113.4 14.2637 113.184 14.5509C112.975 14.8382 112.87 15.1641 112.87 15.5287C112.859 15.8325 112.922 16.0977 113.06 16.3241C113.204 16.5506 113.4 16.7467 113.648 16.9124C113.897 17.0726 114.184 17.2135 114.51 17.335C114.836 17.451 115.184 17.5505 115.554 17.6333L117.079 17.9979C117.819 18.1636 118.499 18.3846 119.117 18.6608C119.736 18.937 120.272 19.2767 120.725 19.68C121.178 20.0832 121.528 20.5583 121.777 21.1052C122.031 21.652 122.161 22.279 122.166 22.9861C122.161 24.0246 121.896 24.925 121.371 25.6873C120.852 26.4441 120.1 27.0324 119.117 27.4522C118.139 27.8665 116.96 28.0737 115.579 28.0737C114.209 28.0737 113.016 27.8638 112 27.4439C110.989 27.0241 110.199 26.4027 109.63 25.5796C109.066 24.751 108.771 23.7263 108.743 22.5055H112.215C112.254 23.0745 112.417 23.5495 112.704 23.9307C112.997 24.3063 113.386 24.5908 113.872 24.7841C114.364 24.9719 114.919 25.0659 115.538 25.0659C116.145 25.0659 116.673 24.9775 117.12 24.8007C117.573 24.6239 117.924 24.3781 118.173 24.0633C118.421 23.7484 118.545 23.3866 118.545 22.9778C118.545 22.5966 118.432 22.2762 118.206 22.0166C117.985 21.757 117.659 21.536 117.228 21.3537C116.803 21.1714 116.281 21.0057 115.662 20.8566L113.814 20.3926C112.383 20.0445 111.254 19.5004 110.425 18.7602C109.597 18.02 109.185 17.0229 109.191 15.769C109.185 14.7415 109.458 13.8439 110.011 13.076C110.569 12.3082 111.334 11.7088 112.306 11.278C113.278 10.8471 114.383 10.6317 115.621 10.6317C116.88 10.6317 117.979 10.8471 118.918 11.278C119.863 11.7088 120.598 12.3082 121.122 13.076C121.647 13.8439 121.918 14.7332 121.934 15.7441H118.496Z" fill="#F7F7F6"/>
    <path fill-rule="evenodd" clip-rule="evenodd" d="M151.166 10C146.907 10 144.245 12.209 143.18 16.6271C144.777 14.4181 146.641 13.5898 148.77 14.1418C149.985 14.4566 150.854 15.371 151.815 16.3835C153.381 18.0321 155.194 19.94 159.152 19.94C163.411 19.94 166.074 17.7309 167.138 13.3135C165.541 15.5226 163.678 16.3508 161.548 15.7982C160.333 15.4834 159.464 14.5689 158.503 13.5572C156.937 11.9073 155.125 10 151.166 10ZM143.18 19.94C138.921 19.94 136.259 22.149 135.194 26.5671C136.791 24.358 138.655 23.5298 140.784 24.0817C141.999 24.3966 142.868 25.311 143.829 26.3234C145.395 27.972 147.207 29.8799 151.166 29.8799C155.425 29.8799 158.088 27.6716 159.152 23.2535C157.555 25.4625 155.691 26.2908 153.562 25.7388C152.347 25.4234 151.478 24.5089 150.517 23.4971C148.951 21.8485 147.138 19.94 143.18 19.94Z" fill="#F7F7F6"/>
    <path d="M209.695 13.8976L196.947 34.198C196.792 34.4444 196.576 34.6472 196.321 34.7875C196.065 34.9277 195.778 35.0009 195.487 35C195.196 34.9992 194.909 34.9244 194.655 34.7825C194.4 34.6407 194.186 34.4365 194.032 34.1892L181.534 13.8903C181.183 13.321 180.998 12.6652 181 11.9967C181.016 11.0107 181.423 10.0713 182.13 9.38465C182.838 8.69798 183.789 8.32005 184.776 8.33373H206.487C208.559 8.33373 210.245 9.96707 210.245 11.9894C210.245 12.6591 210.056 13.3215 209.695 13.8976ZM184.602 13.2191L193.901 27.558V11.7729H185.574C184.612 11.7729 184.179 12.4105 184.602 13.2191ZM197.342 27.558L206.642 13.2191C207.07 12.4105 206.632 11.7729 205.67 11.7729H197.342V27.558Z" fill="#F7F7F6"/>
</svg>